<svg width="420" height="385" xmlns="http://www.w3.org/2000/svg">
 <metadata id="metadata8">image/svg+xml</metadata>
 <defs>
  <clipPath clipPathUnits="userSpaceOnUse" id="clipPath18">
   <path d="m-437.775203,1118.460371l1190.55,0l0,-841.89l-1190.55,0l0,841.89z" id="path16"/>
  </clipPath>
 </defs>
 <g>
  <title>background</title>
  <rect fill="none" id="canvas_background" height="387" width="422" y="-1" x="-1"/>
 </g>
 <g>
  <title>Layer 1</title>
  <g transform="matrix(1.3333333,0,0,-1.3333333,0,1122.52) " id="g12">
   <g id="g14" clip-path="url(#clipPath18)">
    <g id="g20">
     <path fill="#2d2c2e" fill-rule="nonzero" d="m242.648075,679.682229c-1.53,-5.739 -3.936,-10.905 -7.214,-15.495c-3.28,-4.592 -7.487,-8.281 -12.626,-11.069c-5.138,-2.788 -11.259,-4.181 -18.366,-4.181c-7.105,0 -13.226,1.393 -18.365,4.181c-5.137,2.788 -9.346,6.477 -12.626,11.069c-3.279,4.59 -5.683,9.756 -7.215,15.495c-1.529,5.739 -2.295,11.56 -2.295,17.463c0,5.903 0.766,11.724 2.295,17.464c1.532,5.739 3.936,10.904 7.215,15.495c3.28,4.591 7.489,8.28 12.626,11.068c5.139,2.788 11.26,4.182 18.365,4.182c7.107,0 13.228,-1.394 18.366,-4.182c5.139,-2.788 9.346,-6.477 12.626,-11.068c3.278,-4.591 5.684,-9.756 7.214,-15.495c1.532,-5.74 2.295,-11.561 2.295,-17.464c0,-5.903 -0.763,-11.724 -2.295,-17.463m-93.885,0c-1.532,-5.739 -3.935,-10.905 -7.215,-15.495c-3.279,-4.592 -7.489,-8.281 -12.626,-11.069c-5.139,-2.788 -11.26,-4.181 -18.365,-4.181c-7.107,0 -13.228,1.393 -18.365,4.181c-5.14,2.788 -9.346,6.477 -12.626,11.069c-3.279,4.59 -5.685,9.756 -7.214,15.495c-1.533,5.739 -2.296,11.56 -2.296,17.463c0,5.903 0.763,11.724 2.296,17.464c1.529,5.739 3.935,10.904 7.214,15.495c3.28,4.591 7.486,8.28 12.626,11.068c5.137,2.788 11.258,4.182 18.365,4.182c7.105,0 13.226,-1.394 18.365,-4.182c5.137,-2.788 9.347,-6.477 12.626,-11.068c3.28,-4.591 5.683,-9.756 7.215,-15.495c1.497,-5.615 2.257,-11.309 2.289,-17.081l0,-0.766c-0.032,-5.772 -0.792,-11.465 -2.289,-17.08m97.656,60.096c-4.698,5.683 -10.547,10.221 -17.545,13.61c-6.994,3.387 -15.14,4.955 -24.432,5.083c-14.752,0.205 -30.796,-6.721 -40.501,-20.828l0,17.957l-12.889,0l0,-17.948c-9.706,14.101 -25.746,21.024 -40.495,20.819c-9.292,-0.128 -17.437,-1.696 -24.431,-5.083c-6.998,-3.389 -12.848,-7.927 -17.546,-13.61c-4.702,-5.685 -8.226,-12.216 -10.577,-19.595c-2.351,-7.378 -3.525,-15.06 -3.525,-23.038c0,-8.091 1.174,-15.798 3.525,-23.12c2.351,-7.325 5.875,-13.831 10.577,-19.513c4.698,-5.685 10.548,-10.195 17.546,-13.528c6.994,-3.333 20.834,-5.667 32.814,-3.722c14.387,2.336 25.195,9.433 32.112,19.216l0,-17.82l12.889,0l0,17.829c6.916,-9.788 17.728,-16.888 32.119,-19.225c11.98,-1.945 25.82,0.389 32.814,3.722c6.998,3.333 12.847,7.843 17.545,13.528c4.702,5.682 8.227,12.188 10.577,19.513c2.352,7.322 3.526,15.029 3.526,23.12c0,7.978 -1.174,15.66 -3.526,23.038c-2.35,7.379 -5.875,13.91 -10.577,19.595" id="path22"/>
    </g>
    <g id="g24">
     <path fill="#2d2c2e" fill-rule="nonzero" d="m287.90601,641.45353c-7.702,-15.89 -18.11,-29.328 -30.932,-39.936c-13.017,-10.758 -28.227,-18.958 -45.203,-24.37c-17.353,-5.524 -35.683,-8.326 -54.482,-8.326c-19.07,0 -37.46,2.798 -54.655,8.315c-16.863,5.415 -32.012,13.617 -45.026,24.378c-12.802,10.588 -23.124,23.995 -30.68,39.848c-7.536,15.818 -11.356,34.711 -11.356,56.153c0,21.447 3.82,40.338 11.356,56.151c7.556,15.861 17.876,29.267 30.682,39.851c13.013,10.765 28.16,18.966 45.024,24.377c17.18,5.517 35.569,8.314 54.655,8.314c18.815,0 37.144,-2.801 54.48,-8.325c16.979,-5.408 32.187,-13.607 45.203,-24.369c12.825,-10.604 23.232,-24.041 30.932,-39.935c7.647,-15.791 11.524,-34.654 11.524,-56.064c0,-21.405 -3.877,-40.269 -11.522,-56.062m13.498,118.664c-8.686,17.931 -20.313,32.918 -34.874,44.957c-14.568,12.047 -31.302,21.08 -50.208,27.101c-18.907,6.025 -38.59,9.033 -59.033,9.033c-20.73,0 -40.48,-3.008 -59.241,-9.033c-18.77,-6.021 -35.438,-15.054 -49.999,-27.101c-14.567,-12.039 -26.122,-27.026 -34.663,-44.957c-8.541,-17.921 -12.814,-38.791 -12.814,-62.602c0,-23.806 4.273,-44.675 12.814,-62.604c8.541,-17.922 20.096,-32.909 34.663,-44.956c14.561,-12.041 31.229,-21.074 49.999,-27.101c18.761,-6.019 38.511,-9.033 59.241,-9.033c20.443,0 40.126,3.014 59.033,9.033c18.906,6.027 35.64,15.06 50.208,27.101c14.561,12.047 26.188,27.034 34.874,44.956c8.679,17.929 13.024,38.798 13.024,62.604c0,23.811 -4.345,44.681 -13.024,62.602" id="path26"/>
    </g>
   </g>
  </g>
 </g>
</svg>